# xmcd
#
# Track frame offsets: 
#        150
#        10912
#        15353
#        25397
#        34675
#        46078
#        60389
#        71235
#        81332
#        91263
#        95673
#        108363
#        116133
#        129974
#        136605
#        146927
#        153799
#        164714
#        180501
#        190253
#        209372
#
# Disc length: 2949 seconds
#
# Revision: 0
# Processed by: cddbd v1.5.2PL0 Copyright (c) Steve Scherf et al.
# Submitted via: ExactAudioCopy v1.0b3
#
DISCID=190b8315
DTITLE=Rory Block - Guitar Artistry of Rory Block Disk 1
DYEAR=1995
DGENRE=Country Blues
TTITLE0=Crossroad Blues
TTITLE1=The Beginnings
TTITLE2=Titanic
TTITLE3=Growing Up in Greenwich Village
TTITLE4=Stones in My Passway
TTITLE5=Meeting the Old Bluesmen
TTITLE6=Moon Goin' Down
TTITLE7=Meeting Son House
TTITLE8=Preachin' Blues
TTITLE9=Tommy Johnson
TTITLE10=Canned Heat
TTITLE11=Transcribing Mississippi Blues
TTITLE12=Mississippi Blues
TTITLE13=Meeting Mississippi John Hurt
TTITLE14=Frankie
TTITLE15=She Plays Like a Man
TTITLE16=Future Blues
TTITLE17=Playing With a Bottleneck
TTITLE18=County Farm Blues
TTITLE19=Robert Johnson
TTITLE20=If I Had Possession Over Judgement Day
EXTD=
EXTT0=
EXTT1=
EXTT2=
EXTT3=
EXTT4=
EXTT5=
EXTT6=
EXTT7=
EXTT8=
EXTT9=
EXTT10=
EXTT11=
EXTT12=
EXTT13=
EXTT14=
EXTT15=
EXTT16=
EXTT17=
EXTT18=
EXTT19=
EXTT20=
PLAYORDER=
